<svg xmlns="http://www.w3.org/2000/svg" width="33" height="33" viewBox="0 0 33 33">
    <g fill="none">
        <g fill="#000">
            <path d="M12 6c-2.583 0-4.875 1.653-5.692 4.103-.817 2.45.026 5.147 2.092 6.697v4.8c0 1.325 1.075 2.4 2.4 2.4h2.4c1.325 0 2.4-1.075 2.4-2.4v-4.8c2.066-1.55 2.909-4.247 2.092-6.697C16.875 7.653 14.582 6 12 6zM12 4.8c.663 0 1.2-.537 1.2-1.2V1.2C13.2.537 12.663 0 12 0c-.663 0-1.2.537-1.2 1.2v2.4c0 .663.537 1.2 1.2 1.2zM22.8 10.8h-2.4c-.663 0-1.2.537-1.2 1.2 0 .663.537 1.2 1.2 1.2h2.4c.663 0 1.2-.537 1.2-1.2 0-.663-.537-1.2-1.2-1.2zM3.6 10.8H1.2c-.663 0-1.2.537-1.2 1.2 0 .663.537 1.2 1.2 1.2h2.4c.663 0 1.2-.537 1.2-1.2 0-.663-.537-1.2-1.2-1.2zM6.792 5.304L5.064 3.6c-.487-.46-1.255-.44-1.716.048-.46.487-.44 1.255.048 1.716l1.728 1.668c.234.226.55.348.876.336.327-.001.639-.136.864-.372.446-.488.414-1.244-.072-1.692zM20.628 3.66c-.468-.465-1.224-.465-1.692 0l-1.728 1.644c-.465.468-.465 1.224 0 1.692.225.236.537.37.864.372.309-.001.606-.122.828-.336l1.728-1.668c.227-.225.355-.532.355-.852 0-.32-.128-.627-.355-.852z" transform="translate(.6 .6) translate(4 4)"/>
        </g>
    </g>
</svg>
