<svg xmlns="http://www.w3.org/2000/svg" width="33" height="33" viewBox="0 0 33 33">
    <g fill="none">
        <path fill="#000" d="M16.312 27.948h-.12c-3.325-.025-6.5-1.388-8.808-3.78-4.39-4.694-4.524-11.946-.312-16.8 1.31-1.468 2.957-2.597 4.8-3.288.439-.169.936-.066 1.272.264.31.316.42.778.288 1.2-1.343 3.677-.435 7.8 2.328 10.572 2.788 2.754 6.91 3.66 10.596 2.328.439-.154.927-.041 1.254.29.326.332.431.822.27 1.258-.613 1.637-1.57 3.122-2.808 4.356-2.325 2.318-5.477 3.613-8.76 3.6z" transform="translate(.6 .6)"/>
    </g>
</svg>
